<svg width="40" height="40" viewBox="0 0 40 40" fill="none" xmlns="http://www.w3.org/2000/svg">
<path d="M12.5 31.6667C13.5917 34.5797 16.5374 36.6667 20 36.6667C23.4625 36.6667 26.4083 34.5797 27.5 31.6667" stroke="#242424" stroke-width="1.5" stroke-linecap="round"/>
<path d="M31.2485 16.1827V15.0083C31.2485 8.56042 26.2123 3.33337 20 3.33337C13.7876 3.33337 8.75145 8.56042 8.75145 15.0083V16.1827C8.75145 17.592 8.34953 18.9697 7.59633 20.1424L5.7506 23.0159C4.0647 25.6405 5.35175 29.2082 8.28393 30.0382C15.9546 32.2095 24.0455 32.2095 31.716 30.0382C34.6483 29.2082 35.9353 25.6405 34.2493 23.0159L32.4037 20.1424C31.6505 18.9697 31.2485 17.592 31.2485 16.1827Z" stroke="#242424" stroke-width="1.5"/>
<path d="M20 10V16.6667" stroke="#242424" stroke-width="1.5" stroke-linecap="round"/>
</svg>
