<svg width="25" height="27" viewBox="0 0 25 27" fill="none" xmlns="http://www.w3.org/2000/svg">
<path d="M23.3983 18.6136V12.3719C23.3983 7.01114 23.3983 4.33075 21.7508 2.66537C20.1033 1 17.4516 1 12.1483 1C6.84502 1 4.19337 1 2.54584 2.66537C0.898315 4.33075 0.898315 7.01114 0.898315 12.3719V18.6136C0.898315 22.4844 0.898316 24.4198 1.81595 25.2654C2.25358 25.6688 2.806 25.9221 3.39447 25.9894C4.62834 26.1306 6.06923 24.8561 8.95101 22.3072C10.2248 21.1806 10.8618 20.6172 11.5987 20.4689C11.9616 20.3957 12.3351 20.3957 12.6979 20.4689C13.4348 20.6172 14.0718 21.1806 15.3456 22.3072C18.2274 24.8561 19.6683 26.1306 20.9022 25.9894C21.4907 25.9221 22.0431 25.6688 22.4807 25.2654C23.3983 24.4198 23.3983 22.4844 23.3983 18.6136Z" stroke="#1C274D" stroke-width="1.5"/>
<path opacity="0.5" d="M15.8983 6H8.39832" stroke="#1C274D" stroke-width="1.5" stroke-linecap="round"/>
</svg>
