<svg width="40" height="40" viewBox="0 0 40 40" fill="none" xmlns="http://www.w3.org/2000/svg">
<path d="M3 20.0065C3 16.1925 3 14.2855 3.86533 12.7046C4.73067 11.1237 6.31158 10.1425 9.47338 8.18022L12.8067 6.11145C16.149 4.03715 17.8202 3 19.6667 3C21.5132 3 23.1843 4.03715 26.5267 6.11145L29.86 8.1802C33.0218 10.1425 34.6027 11.1237 35.468 12.7046C36.3333 14.2855 36.3333 16.1925 36.3333 20.0065V22.5417C36.3333 29.043 36.3333 32.2938 34.3807 34.3135C32.4282 36.3333 29.2853 36.3333 23 36.3333H16.3333C10.0479 36.3333 6.90525 36.3333 4.95262 34.3135C3 32.2938 3 29.043 3 22.5417V20.0065Z" stroke="#242424" stroke-width="1.5"/>
<path d="M14.6666 26.3334C16.0839 27.3839 17.8076 28 19.6666 28C21.5256 28 23.2493 27.3839 24.6666 26.3334" stroke="#242424" stroke-width="1.5" stroke-linecap="round"/>
</svg>
