<svg width="34" height="34" viewBox="0 0 34 34" fill="none" xmlns="http://www.w3.org/2000/svg">
<g clip-path="url(#clip0_79_631)">
<path d="M13.9706 3.4366C13.2548 5.1546 11.2474 5.93071 9.55759 5.15078C6.76158 3.86031 3.86068 6.76121 5.15114 9.55722C5.93108 11.2471 5.15496 13.2544 3.43697 13.9703C0.74383 15.0924 0.74383 18.9076 3.43697 20.0298C5.15496 20.7456 5.93108 22.7531 5.15114 24.4428C3.86068 27.2388 6.76158 30.1397 9.55759 28.8492C11.2474 28.0693 13.2548 28.8454 13.9706 30.5634C15.0928 33.2566 18.908 33.2566 20.0301 30.5634C20.746 28.8454 22.7534 28.0693 24.4431 28.8492C27.2392 30.1397 30.1401 27.2388 28.8495 24.4428C28.0696 22.7531 28.8457 20.7456 30.5637 20.0298C33.257 18.9076 33.257 15.0924 30.5637 13.9703C28.8457 13.2544 28.0696 11.2471 28.8495 9.55722C30.1401 6.76121 27.2392 3.86031 24.4431 5.15078C22.7534 5.93071 20.746 5.1546 20.0301 3.4366C18.908 0.743464 15.0928 0.743464 13.9706 3.4366Z" stroke="#323232" stroke-width="2" stroke-linecap="round" stroke-linejoin="round"/>
<path d="M22.2092 17C22.2092 19.8768 19.8773 22.2087 17.0005 22.2087C14.1237 22.2087 11.7917 19.8768 11.7917 17C11.7917 14.1232 14.1237 11.7913 17.0005 11.7913C19.8773 11.7913 22.2092 14.1232 22.2092 17Z" stroke="#27C499" stroke-width="2"/>
</g>
<defs>
<clipPath id="clip0_79_631">
<rect width="34" height="34" fill="white"/>
</clipPath>
</defs>
</svg>
