<svg width="44" height="44" viewBox="0 0 44 44" fill="none" xmlns="http://www.w3.org/2000/svg">
<path d="M34.6238 41.8746C32.7905 42.4163 30.6238 42.6663 28.0821 42.6663H15.5821C13.0404 42.6663 10.8737 42.4163 9.04041 41.8746C9.49872 36.4579 15.0612 32.1869 21.8321 32.1869C28.6029 32.1869 34.1655 36.4579 34.6238 41.8746Z" stroke="#1C274C" stroke-width="1.5" stroke-linecap="round" stroke-linejoin="round"/>
<path d="M42.6667 15.5833V28.0833C42.6667 35.9583 40.2917 40.2708 34.625 41.875C32.7917 42.4167 30.625 42.6667 28.0833 42.6667H15.5833C13.0417 42.6667 10.875 42.4167 9.04167 41.875C3.375 40.2708 1 35.9583 1 28.0833V15.5833C1 5.16667 5.16667 1 15.5833 1H28.0833C38.5 1 42.6667 5.16667 42.6667 15.5833Z" stroke="#688E95" stroke-width="1.5" stroke-linecap="round" stroke-linejoin="round"/>
<path d="M29.2914 18.875C29.2914 23 25.9581 26.3541 21.8331 26.3541C17.7081 26.3541 14.3748 23 14.3748 18.875C14.3748 14.75 17.7081 11.4166 21.8331 11.4166C25.9581 11.4166 29.2914 14.75 29.2914 18.875Z" stroke="#1C274C" stroke-width="1.5" stroke-linecap="round" stroke-linejoin="round"/>
</svg>
