<svg width="40" height="40" viewBox="0 0 40 40" fill="none" xmlns="http://www.w3.org/2000/svg">
<path d="M36.6667 15V25C36.6667 31.3 34.7667 34.75 30.2334 36.0334C28.7667 36.4667 27.0334 36.6667 25 36.6667H15C12.9667 36.6667 11.2334 36.4667 9.76671 36.0334C5.23337 34.75 3.33337 31.3 3.33337 25V15C3.33337 6.66671 6.66671 3.33337 15 3.33337H25C33.3334 3.33337 36.6667 6.66671 36.6667 15Z" stroke="#242424" stroke-width="1.5" stroke-linecap="round" stroke-linejoin="round"/>
<path d="M25.9665 17.6334C25.9665 20.9334 23.2998 23.6167 19.9998 23.6167C16.6998 23.6167 14.0332 20.9334 14.0332 17.6334C14.0332 14.3334 16.6998 11.6667 19.9998 11.6667C23.2998 11.6667 25.9665 14.3334 25.9665 17.6334Z" stroke="#242424" stroke-width="1.5" stroke-linecap="round" stroke-linejoin="round"/>
<path d="M29 35.25C27.6899 31.7544 24.1551 29.25 20 29.25C15.845 29.25 12.31 31.7544 11 35.25" stroke="#242424" stroke-width="1.5" stroke-linecap="round"/>
</svg>
